<svg xmlns="http://www.w3.org/2000/svg" viewBox="0 0 32.72 50.5"><defs><style>.cls-1{fill:#fff;}</style></defs><title>Fichier 1</title><g id="Calque_2" data-name="Calque 2"><g id="Calque_1-2" data-name="Calque 1"><path class="cls-1" d="M30.77,33.07,21,28.23A3,3,0,0,0,19.88,28H18.25V15.13a3.22,3.22,0,0,0-6.43,0v23L4.47,36.61A3.92,3.92,0,0,0,4,36.54a2.4,2.4,0,0,0-1.7.71L.57,39,11.16,49.55a3.22,3.22,0,0,0,2.27,1H28a3.13,3.13,0,0,0,3.09-2.75l1.61-11.29a3.44,3.44,0,0,0,0-.43A3.22,3.22,0,0,0,30.77,33.07Z"/><path class="cls-1" d="M4.12,26.05,8,24.51a10.68,10.68,0,0,0,1.62,1V15.37a5.38,5.38,0,0,1,10.76,0V25.56a12.58,12.58,0,0,0,1.63-1l3.83,1.54a.75.75,0,0,0,.94-.34L29.8,20.4a.79.79,0,0,0-.18-1l-3.25-2.53a12.48,12.48,0,0,0,.11-1.51,12.48,12.48,0,0,0-.11-1.51l3.25-2.53a.79.79,0,0,0,.18-1L26.73,5a.77.77,0,0,0-.94-.34L22,6.22a11.21,11.21,0,0,0-2.6-1.5L18.78.65A.76.76,0,0,0,18,0H11.88a.75.75,0,0,0-.75.65l-.59,4.07A11.67,11.67,0,0,0,8,6.22L4.12,4.69A.75.75,0,0,0,3.18,5L.11,10.34a.77.77,0,0,0,.18,1l3.24,2.53a12.62,12.62,0,0,0-.1,1.51,12.62,12.62,0,0,0,.1,1.51L.29,19.41a.78.78,0,0,0-.18,1l3.07,5.31A.78.78,0,0,0,4.12,26.05Z"/></g></g></svg>