<?xml version="1.0" encoding="utf-8"?>
<!-- Generator: Adobe Illustrator 23.0.1, SVG Export Plug-In . SVG Version: 6.00 Build 0)  -->
<svg version="1.1" id="Calque_1" xmlns="http://www.w3.org/2000/svg" xmlns:xlink="http://www.w3.org/1999/xlink" x="0px" y="0px"
	 viewBox="0 0 665.1 287.1" style="enable-background:new 0 0 665.1 287.1;" xml:space="preserve">
<style type="text/css">
	.st0{fill-opacity:0;}
	.st1{fill:#FFFFFF;}
	.st2{opacity:0.5;}
	.st3{fill:none;stroke:#FFFFFF;stroke-miterlimit:10;}
	.st4{fill:#58585A;}
</style>
<g>
	<title>Plan de travail 1</title>
	<g>
		<g id="Calque_1-2">
			<rect x="-373.5" y="-0.4" class="st0" width="1278.5" height="287.9"/>
			<path class="st1" d="M299.2,106.4h6.2c0.7,0,1.5,0.1,2.2,0.3c0.7,0.2,1.3,0.5,1.9,0.9s1.1,0.8,1.6,1.3s0.9,1.1,1.2,1.7
				c0.3,0.6,0.6,1.3,0.8,2c0.2,0.7,0.3,1.5,0.3,2.2c0,0.8-0.1,1.5-0.3,2.2c-0.2,0.7-0.4,1.4-0.8,2c-1.3,2.6-4.1,4.2-7,4.1h-6.2v-1.9
				h1.6v-12.9h-1.6L299.2,106.4z M303,108.3v12.9h2.6c0.8,0,1.5-0.2,2.2-0.5s1.3-0.8,1.8-1.4s0.9-1.3,1.1-2.1
				c0.3-0.8,0.4-1.7,0.4-2.6s-0.1-1.7-0.4-2.5c-0.3-0.7-0.7-1.4-1.2-2s-1.1-1-1.8-1.4c-0.7-0.3-1.4-0.5-2.2-0.5L303,108.3z"/>
			<path class="st1" d="M317,117.6c0,0.3,0,0.6,0.1,0.9c0,0.3,0.1,0.5,0.2,0.8c0.2,0.7,0.7,1.3,1.3,1.7c0.6,0.4,1.3,0.6,2,0.6
				c0.6,0,1.2-0.1,1.8-0.2c0.6-0.2,1.2-0.5,1.8-0.8l0.8,1.4c-0.7,0.5-1.5,0.9-2.2,1.2c-0.8,0.2-1.6,0.4-2.4,0.4
				c-0.7,0-1.5-0.1-2.1-0.4c-0.6-0.2-1.2-0.6-1.7-1.2c-0.5-0.5-0.9-1.2-1.1-1.9c-0.3-0.9-0.4-1.7-0.4-2.6c0-0.8,0.1-1.6,0.3-2.3
				c0.2-0.7,0.6-1.3,1-1.9c0.5-0.5,1-1,1.7-1.3s1.5-0.5,2.3-0.5c0.7,0,1.5,0.1,2.1,0.4c0.5,0.2,1,0.6,1.4,1s0.6,0.9,0.8,1.5
				c0.2,0.5,0.3,1.1,0.4,1.7c0,0.3,0.1,0.6,0.1,0.9s0,0.6,0,0.8L317,117.6z M320.2,113.1c-0.4,0-0.8,0.1-1.2,0.2
				c-0.3,0.1-0.6,0.3-0.9,0.6c-0.3,0.3-0.5,0.6-0.6,0.9c-0.2,0.4-0.3,0.8-0.3,1.2h5.9c0-0.4-0.1-0.8-0.2-1.2
				c-0.1-0.3-0.3-0.7-0.5-0.9c-0.2-0.3-0.5-0.5-0.9-0.6C321,113.2,320.6,113.1,320.2,113.1L320.2,113.1z"/>
			<path class="st1" d="M333.7,114c-0.1-0.2-0.3-0.4-0.5-0.5s-0.5-0.2-0.8-0.3c-0.3-0.1-0.5-0.1-0.8-0.1s-0.5,0-0.8,0.1
				c-0.2,0.1-0.4,0.1-0.6,0.3c-0.2,0.1-0.3,0.3-0.4,0.5c-0.3,0.5-0.2,1.1,0.2,1.5c0.3,0.3,0.7,0.5,1.2,0.6l2.2,0.8
				c0.8,0.2,1.5,0.7,2.1,1.3c0.5,0.6,0.7,1.3,0.6,2c0,0.5-0.1,1-0.3,1.4c-0.2,0.4-0.5,0.8-0.9,1.1c-0.4,0.3-0.8,0.5-1.3,0.7
				c-0.6,0.2-1.2,0.3-1.8,0.2c-0.7,0-1.5-0.1-2.2-0.4c-0.5-0.3-1-0.6-1.3-1.1h-1.1V120h2.3c0,0.3,0.1,0.6,0.2,0.8
				c0.1,0.2,0.3,0.4,0.5,0.6c0.2,0.1,0.5,0.2,0.8,0.3c0.3,0.1,0.6,0.1,0.9,0.1s0.6,0,0.8-0.1c0.3-0.1,0.5-0.2,0.7-0.3
				c0.2-0.1,0.4-0.3,0.5-0.5s0.2-0.4,0.2-0.7c0-0.3-0.1-0.7-0.4-0.9c-0.3-0.3-0.8-0.6-1.2-0.7l-2.2-0.8c-0.8-0.2-1.4-0.6-2-1.2
				c-0.4-0.5-0.7-1.2-0.6-1.8c0-0.5,0.1-0.9,0.3-1.3c0.2-0.4,0.4-0.8,0.8-1.1c0.4-0.3,0.8-0.6,1.2-0.7c0.5-0.2,1.1-0.3,1.7-0.3
				c0.7,0,1.4,0.1,2,0.3c0.6,0.2,1.1,0.6,1.5,1.2h1.1v1.9H334C333.9,114.5,333.8,114.2,333.7,114z"/>
			<path class="st1" d="M337.9,111.7h3.7v9.5h1.8v1.9H338v-1.9h1.6v-7.6H338L337.9,111.7z M339.2,107.7c0-0.2,0-0.4,0.1-0.5
				c0.1-0.2,0.2-0.3,0.3-0.4c0.1-0.1,0.3-0.2,0.5-0.3c0.4-0.1,0.8-0.1,1.1,0c0.2,0.1,0.3,0.2,0.5,0.3c0.1,0.1,0.2,0.3,0.3,0.4
				c0.1,0.2,0.1,0.4,0.1,0.5c0,0.2,0,0.4-0.1,0.6s-0.2,0.3-0.3,0.5c-0.1,0.1-0.3,0.2-0.5,0.3c-0.4,0.1-0.8,0.1-1.1,0
				c-0.2-0.1-0.3-0.2-0.5-0.3c-0.1-0.1-0.2-0.3-0.3-0.5C339.2,108,339.2,107.8,339.2,107.7L339.2,107.7z"/>
			<path class="st1" d="M353,122.1c-0.4,0.4-0.8,0.7-1.3,0.9c-0.5,0.2-1.1,0.3-1.7,0.3c-0.7,0-1.5-0.1-2.1-0.4
				c-0.7-0.3-1.3-0.7-1.8-1.2s-0.9-1.2-1.1-1.9c-0.3-0.8-0.4-1.7-0.4-2.6c0-0.8,0.1-1.6,0.4-2.4c0.2-0.7,0.6-1.3,1.1-1.8
				s1.1-0.9,1.8-1.2c1.2-0.5,2.6-0.6,3.8-0.2c0.5,0.1,0.9,0.4,1.3,0.7v-0.6h2v11c0.1,1.5-0.4,2.9-1.3,4.1c-1.1,1-2.5,1.5-4,1.4
				c-0.4,0-0.8,0-1.2-0.1c-0.4-0.1-0.9-0.2-1.3-0.3c-0.4-0.1-0.8-0.3-1.2-0.5c-0.4-0.2-0.8-0.4-1.1-0.7l1.1-1.7
				c0.2,0.2,0.5,0.4,0.8,0.5c0.3,0.2,0.6,0.3,0.9,0.4s0.7,0.2,1,0.3c0.3,0.1,0.7,0.1,1,0.1c0.5,0,1-0.1,1.5-0.2
				c0.4-0.1,0.7-0.3,1-0.6c0.3-0.4,0.5-0.8,0.6-1.2c0.1-0.6,0.2-1.3,0.2-1.9L353,122.1z M350.3,121.5c0.3,0,0.6,0,0.9-0.1
				c0.5-0.1,1-0.3,1.4-0.6c0.2-0.1,0.3-0.3,0.4-0.4v-6.2c-0.4-0.3-0.8-0.6-1.3-0.7s-1-0.2-1.5-0.2s-0.9,0.1-1.4,0.3
				c-0.4,0.2-0.8,0.4-1.1,0.8c-0.3,0.4-0.6,0.8-0.8,1.3c-0.2,0.6-0.3,1.2-0.3,1.8c0,0.6,0.1,1.3,0.3,1.9c0.2,0.5,0.4,1,0.7,1.3
				c0.3,0.4,0.7,0.6,1.1,0.8C349.3,121.5,349.8,121.6,350.3,121.5L350.3,121.5z"/>
			<path class="st1" d="M365,121.2h1.6V116c0.1-0.7-0.2-1.5-0.7-2s-1.2-0.7-1.9-0.7c-0.5,0-1,0.1-1.4,0.3c-0.5,0.2-1,0.5-1.4,0.9
				v6.7h1.6v1.8h-5.3v-1.9h1.6v-7.6h-1.6v-1.9h3.6v1.4l0,0c0.2-0.2,0.5-0.4,0.8-0.6s0.6-0.4,0.9-0.5s0.6-0.3,0.9-0.3
				c0.3-0.1,0.7-0.1,1-0.1c0.6,0,1.1,0.1,1.6,0.2c0.5,0.2,0.9,0.4,1.3,0.8s0.6,0.8,0.8,1.3c0.2,0.6,0.3,1.3,0.3,1.9v5.5h1.6v1.9H365
				V121.2z"/>
			<path class="st1" d="M372.1,111.7h3.7v9.5h1.8v1.9h-5.5v-1.9h1.6v-7.6h-1.6V111.7z M373.4,107.7c0-0.2,0-0.4,0.1-0.5
				c0.1-0.2,0.2-0.3,0.3-0.4c0.3-0.3,0.6-0.4,1-0.4c0.2,0,0.4,0,0.5,0.1c0.2,0.1,0.3,0.2,0.5,0.3c0.1,0.1,0.2,0.3,0.3,0.4
				c0.1,0.2,0.1,0.4,0.1,0.5c0,0.2,0,0.4-0.1,0.6s-0.2,0.3-0.3,0.5c-0.1,0.1-0.3,0.2-0.5,0.3c-0.2,0.1-0.4,0.1-0.5,0.1
				c-0.2,0-0.4,0-0.6-0.1s-0.3-0.2-0.5-0.3c-0.1-0.1-0.2-0.3-0.3-0.5C373.4,108,373.4,107.8,373.4,107.7L373.4,107.7z"/>
			<path class="st1" d="M386.7,121.2h1.6V116c0.1-0.7-0.2-1.5-0.7-2s-1.2-0.7-1.9-0.7c-0.5,0-1,0.1-1.4,0.3c-0.5,0.2-1,0.5-1.4,0.9
				v6.7h1.6v1.8h-5.3v-1.9h1.6v-7.6h-1.6v-1.9h3.6v1.4l0,0c0.2-0.2,0.5-0.4,0.8-0.6s0.6-0.4,0.9-0.5s0.7-0.2,1-0.3
				c0.3-0.1,0.7-0.1,1-0.1c0.6,0,1.1,0.1,1.6,0.3c0.5,0.1,0.9,0.4,1.2,0.8c0.4,0.4,0.6,0.8,0.8,1.3c0.2,0.6,0.3,1.3,0.3,1.9v5.5h1.6
				v1.8h-5.3L386.7,121.2z"/>
			<path class="st1" d="M401.9,122.1c-0.4,0.4-0.8,0.7-1.3,0.9c-0.5,0.2-1.1,0.3-1.7,0.3c-0.7,0-1.5-0.1-2.1-0.4
				c-0.7-0.3-1.3-0.7-1.8-1.2c-0.5-0.6-0.9-1.2-1.1-1.9c-0.3-0.8-0.4-1.7-0.4-2.6c0-0.8,0.1-1.6,0.4-2.4c0.2-0.7,0.6-1.3,1.1-1.8
				s1.1-0.9,1.8-1.2c0.7-0.3,1.5-0.4,2.3-0.4c0.5,0,1,0.1,1.5,0.2s0.9,0.4,1.3,0.7v-0.6h2v11c0.1,1.5-0.3,2.9-1.3,4.1
				c-1.1,1-2.5,1.5-4,1.4c-0.4,0-0.8,0-1.2-0.1c-0.4-0.1-0.9-0.2-1.3-0.3c-0.4-0.1-0.8-0.3-1.2-0.5c-0.4-0.2-0.8-0.4-1.1-0.7
				l1.1-1.7c0.2,0.2,0.5,0.4,0.8,0.5c0.3,0.2,0.6,0.3,0.9,0.4s0.7,0.2,1,0.3c0.3,0.1,0.7,0.1,1,0.1c0.5,0,1-0.1,1.5-0.2
				c0.4-0.1,0.7-0.3,1-0.6c0.3-0.3,0.5-0.8,0.6-1.2c0.1-0.6,0.2-1.3,0.2-1.9L401.9,122.1z M399.1,121.5c0.3,0,0.6,0,0.9-0.1
				s0.5-0.1,0.8-0.3c0.2-0.1,0.4-0.2,0.6-0.4c0.2-0.1,0.3-0.3,0.5-0.4v-6.2c-0.4-0.3-0.8-0.6-1.3-0.7s-1-0.2-1.5-0.2
				s-0.9,0.1-1.4,0.3c-0.4,0.2-0.8,0.4-1.1,0.8c-0.3,0.4-0.6,0.8-0.8,1.3c-0.2,0.6-0.3,1.2-0.3,1.8c0,0.6,0.1,1.3,0.3,1.9
				c0.2,0.5,0.4,1,0.7,1.3c0.3,0.4,0.7,0.6,1.1,0.8C398.1,121.5,398.6,121.6,399.1,121.5L399.1,121.5z"/>
			<path class="st1" d="M311.1,153.6l-2.5-2.4c-0.3,0.4-0.6,0.7-1,1c-0.7,0.6-1.5,1-2.3,1.3c-0.5,0.1-0.9,0.2-1.4,0.2
				c-1.3,0-2.5-0.5-3.5-1.3c-0.4-0.4-0.8-0.9-1-1.4c-0.2-0.6-0.4-1.2-0.4-1.8c0-0.4,0.1-0.8,0.2-1.2s0.3-0.8,0.5-1.1
				s0.5-0.7,0.8-0.9c0.4-0.3,0.9-0.6,1.4-0.9l-0.7-0.7c-0.2-0.2-0.4-0.4-0.5-0.6c-0.2-0.2-0.3-0.5-0.5-0.7c-0.1-0.3-0.2-0.5-0.3-0.8
				c-0.1-0.3-0.1-0.5-0.1-0.8c0-1.1,0.4-2.1,1.2-2.8c0.8-0.8,1.8-1.2,2.9-1.2s2.2,0.4,3,1.2c0.4,0.4,0.7,0.8,0.9,1.3
				c0.2,0.5,0.3,1,0.3,1.5c0,0.4,0,0.7-0.1,1.1c-0.1,0.3-0.2,0.6-0.4,0.9c-0.1,0.3-0.3,0.5-0.5,0.7s-0.4,0.4-0.7,0.6
				c-0.2,0.2-0.5,0.3-0.7,0.5c-0.2,0.1-0.5,0.3-0.8,0.4l3.2,3c0.2-0.5,0.4-1,0.5-1.5s0.2-0.9,0.3-1.4h2c-0.1,0.7-0.3,1.3-0.5,2
				c-0.3,0.7-0.6,1.4-0.9,2.1l2.9,2.6L311.1,153.6z M302.6,146.5c-0.2,0.1-0.5,0.2-0.6,0.4c-0.2,0.2-0.3,0.4-0.5,0.6
				c-0.5,0.8-0.6,1.8-0.2,2.6c0.2,0.3,0.4,0.6,0.6,0.9c0.3,0.3,0.6,0.5,1,0.6s0.8,0.2,1.2,0.2c0.3,0,0.7-0.1,1-0.1
				c0.3-0.1,0.6-0.2,0.9-0.4s0.5-0.4,0.8-0.6c0.2-0.2,0.5-0.5,0.6-0.7l-4-3.8L302.6,146.5z M305.8,142.8c0.2-0.2,0.3-0.4,0.5-0.7
				c0.1-0.2,0.2-0.5,0.2-0.8s-0.1-0.6-0.2-0.9c-0.1-0.3-0.3-0.5-0.5-0.7s-0.5-0.4-0.8-0.5s-0.6-0.2-0.9-0.2s-0.6,0.1-1,0.2
				c-0.3,0.1-0.5,0.3-0.7,0.5c-0.4,0.4-0.6,1-0.6,1.6c0,0.3,0.1,0.6,0.2,0.9c0.2,0.4,0.4,0.7,0.8,1l0.9,0.9c0.4-0.2,0.8-0.4,1.2-0.6
				C305.2,143.2,305.6,143,305.8,142.8L305.8,142.8z"/>
			<path class="st1" d="M318.6,137.2h3.5v6.3c0.5-0.4,1-0.7,1.5-0.9c1.2-0.4,2.5-0.4,3.6,0.1c0.6,0.3,1.1,0.6,1.5,1.1s0.8,1.1,1,1.8
				c0.5,1.5,0.5,3.1,0,4.6c-0.2,0.7-0.6,1.3-1.1,1.8s-1,0.9-1.7,1.2s-1.4,0.4-2.1,0.4c-0.5,0-1-0.1-1.5-0.2
				c-0.4-0.1-0.8-0.4-1.2-0.6v0.7h-2V139h-1.6L318.6,137.2z M324.8,144.1c-0.5,0-1,0.1-1.5,0.3s-0.9,0.5-1.2,0.9v5.8
				c0.3,0.3,0.6,0.5,1,0.6c0.5,0.2,1.1,0.3,1.6,0.3c0.4,0,0.9-0.1,1.3-0.2c0.4-0.2,0.8-0.4,1.1-0.8c0.3-0.4,0.6-0.8,0.8-1.3
				c0.4-1.1,0.4-2.3,0-3.4c-0.2-0.4-0.4-0.9-0.7-1.2c-0.3-0.3-0.6-0.6-1-0.8C325.6,144.2,325.2,144.1,324.8,144.1z"/>
			<path class="st1" d="M338.5,142.7h3.5v9h1.2v1.8H340v-1c-0.5,0.4-1,0.7-1.6,0.9s-1.2,0.3-1.9,0.3c-0.5,0-1-0.1-1.5-0.2
				c-0.4-0.1-0.8-0.4-1.1-0.7c-0.3-0.4-0.6-0.8-0.7-1.3c-0.2-0.6-0.3-1.2-0.2-1.8v-5.2h-1.5v-1.8h3.5v6.8c-0.1,0.7,0.1,1.3,0.6,1.9
				c0.4,0.4,1,0.7,1.7,0.6c0.5,0,0.9-0.1,1.3-0.2c0.5-0.1,0.9-0.4,1.3-0.6v-6.6h-1.5L338.5,142.7z"/>
			<path class="st1" d="M345.7,142.7h3.5v9h1.6v1.8h-5.1v-1.8h1.5v-7.2h-1.6L345.7,142.7z M346.9,138.8c0-0.2,0-0.4,0.1-0.5
				c0.1-0.2,0.2-0.3,0.3-0.4c0.1-0.1,0.3-0.2,0.4-0.3c0.3-0.1,0.7-0.1,1,0c0.2,0.1,0.3,0.2,0.4,0.3s0.2,0.3,0.3,0.4
				c0.1,0.2,0.1,0.3,0.1,0.5s0,0.4-0.1,0.5c-0.1,0.2-0.2,0.3-0.3,0.4c-0.1,0.1-0.3,0.2-0.4,0.3c-0.3,0.1-0.7,0.1-1,0
				c-0.2-0.1-0.3-0.2-0.4-0.3C347,139.6,346.9,139.2,346.9,138.8z"/>
			<path class="st1" d="M352.8,137.2h3.5v14.5h1.7v1.8h-5.1v-1.8h1.6V139h-1.6L352.8,137.2z"/>
			<path class="st1" d="M366,137.2h3.4v14.5h1.6v1.8h-3.5v-0.9c-0.3,0.4-0.8,0.6-1.2,0.8c-0.5,0.2-1,0.3-1.6,0.3
				c-0.7,0-1.4-0.1-2-0.4c-0.6-0.2-1.2-0.6-1.6-1.1c-0.5-0.5-0.9-1.1-1.1-1.8c-0.3-0.8-0.4-1.6-0.4-2.4c0-0.8,0.1-1.6,0.4-2.3
				c0.2-0.7,0.6-1.2,1.1-1.8c0.5-0.5,1-0.9,1.7-1.1c0.7-0.3,1.4-0.4,2.2-0.4c0.5,0,1,0,1.4,0.2c0.4,0.1,0.9,0.3,1.2,0.6V139H366
				V137.2z M365,152.1c0.5,0,1-0.1,1.5-0.3c0.4-0.2,0.8-0.4,1.1-0.8v-6c-0.4-0.3-0.8-0.5-1.2-0.6c-0.5-0.1-0.9-0.2-1.4-0.2
				c-0.4,0-0.9,0.1-1.3,0.3s-0.8,0.4-1,0.8c-0.3,0.3-0.6,0.8-0.7,1.2c-0.2,0.5-0.3,1.1-0.3,1.6c0,0.6,0.1,1.2,0.2,1.8
				c0.1,0.5,0.4,0.9,0.7,1.3c0.3,0.3,0.7,0.6,1.1,0.8C364.1,152,364.5,152.1,365,152.1z"/>
			<path class="st1" d="M373,142.7h3.5v9h1.6v1.8H373v-1.8h1.5v-7.2H373V142.7z M374.2,138.8c0-0.2,0-0.4,0.1-0.5
				c0.1-0.2,0.2-0.3,0.3-0.4c0.1-0.1,0.3-0.2,0.4-0.3c0.2-0.1,0.4-0.1,0.5-0.1c0.2,0,0.4,0,0.5,0.1c0.2,0.1,0.3,0.2,0.4,0.3
				s0.2,0.3,0.3,0.4c0.1,0.2,0.1,0.3,0.1,0.5s0,0.4-0.1,0.5c-0.1,0.2-0.2,0.3-0.3,0.4c-0.1,0.1-0.3,0.2-0.4,0.3
				c-0.2,0.1-0.3,0.1-0.5,0.1s-0.4,0-0.5-0.1c-0.3-0.2-0.6-0.4-0.7-0.8C374.2,139.2,374.2,139,374.2,138.8L374.2,138.8z"/>
			<path class="st1" d="M387.3,151.7h1.5v-4.9c0-0.7-0.2-1.4-0.6-1.9c-0.5-0.5-1.2-0.7-1.8-0.6c-0.5,0-0.9,0.1-1.4,0.3
				s-0.9,0.5-1.3,0.8v6.4h1.5v1.8h-5.1v-1.8h1.5v-7.2h-1.5v-1.8h3.5v1.3l0,0c0.2-0.2,0.5-0.4,0.7-0.6c0.5-0.4,1.1-0.6,1.7-0.8
				c0.3-0.1,0.7-0.1,1-0.1c0.5,0,1.1,0.1,1.6,0.2c0.5,0.1,0.9,0.4,1.2,0.7c0.3,0.4,0.6,0.8,0.8,1.3c0.2,0.6,0.3,1.2,0.3,1.8v5.2h1.5
				v1.8h-5L387.3,151.7z"/>
			<path class="st1" d="M402,152.6c-0.3,0.4-0.8,0.7-1.2,0.9c-0.5,0.2-1.1,0.3-1.6,0.3c-0.7,0-1.4-0.1-2-0.4
				c-0.6-0.2-1.2-0.6-1.6-1.1c-0.5-0.5-0.8-1.1-1.1-1.8c-0.3-0.8-0.4-1.6-0.4-2.4c0-0.8,0.1-1.6,0.4-2.3c0.2-0.7,0.6-1.3,1.1-1.8
				s1-0.9,1.7-1.1c0.7-0.3,1.4-0.4,2.2-0.4c0.5,0,1,0.1,1.5,0.2c0.5,0.1,0.9,0.3,1.3,0.6v-0.6h2v10.4c0.1,1.4-0.3,2.8-1.2,3.9
				c-1,1-2.4,1.4-3.8,1.3c-0.4,0-0.8,0-1.2-0.1c-0.4,0-0.8-0.1-1.2-0.3c-0.4-0.1-0.8-0.3-1.2-0.5c-0.4-0.2-0.7-0.4-1.1-0.7l1-1.6
				c0.2,0.2,0.5,0.4,0.7,0.5c0.3,0.2,0.6,0.3,0.9,0.4c0.3,0.1,0.7,0.2,1,0.3s0.7,0.1,1,0.1c0.5,0,0.9,0,1.4-0.2
				c0.4-0.1,0.7-0.3,1-0.6s0.5-0.7,0.6-1.1c0.1-0.6,0.2-1.2,0.2-1.8L402,152.6z M399.4,152.1c0.6,0,1.1-0.1,1.6-0.3
				c0.2-0.1,0.4-0.2,0.6-0.4c0.2-0.1,0.3-0.2,0.4-0.4v-5.9c-0.4-0.3-0.8-0.5-1.2-0.7c-0.5-0.1-1-0.2-1.4-0.2s-0.9,0.1-1.3,0.3
				s-0.8,0.4-1.1,0.8c-0.3,0.3-0.6,0.8-0.7,1.2c-0.2,0.5-0.3,1-0.3,1.6s0.1,1.2,0.2,1.8c0.1,0.5,0.4,0.9,0.7,1.3
				c0.3,0.3,0.7,0.6,1.1,0.8C398.5,152,398.9,152.1,399.4,152.1L399.4,152.1z"/>
			<path class="st1" d="M306.6,173.5c-0.3-0.4-0.6-0.7-1-0.9s-0.9-0.3-1.3-0.2c-0.4,0-0.8,0-1.1,0.2c-0.3,0.1-0.6,0.3-0.9,0.6
				c-0.2,0.3-0.4,0.6-0.5,0.9c-0.1,0.4-0.2,0.8-0.2,1.2s0.1,0.7,0.2,1.1c0.1,0.3,0.3,0.6,0.6,0.9c0.3,0.3,0.6,0.4,0.9,0.6
				c0.3,0.1,0.7,0.2,1.1,0.2c0.3,0,0.6-0.1,0.9-0.2c0.3-0.1,0.5-0.3,0.7-0.4c0.2-0.2,0.4-0.4,0.5-0.6c0.1-0.2,0.3-0.4,0.4-0.6
				l2.9,0.8c-0.1,0.5-0.4,0.9-0.6,1.3c-0.3,0.5-0.7,0.9-1.1,1.2c-0.5,0.4-1.1,0.7-1.6,0.9c-0.7,0.3-1.4,0.4-2.2,0.4
				c-0.8,0-1.6-0.1-2.3-0.5c-0.7-0.3-1.3-0.7-1.8-1.2c-1.1-1.1-1.6-2.6-1.6-4.1c0-0.8,0.1-1.5,0.4-2.2s0.7-1.3,1.2-1.8
				s1.1-0.9,1.8-1.2c0.7-0.3,1.5-0.4,2.3-0.4c0.6,0,1.2,0,1.7,0.2c0.6,0.2,1.1,0.4,1.6,0.7h2.1v3.1H306.6z"/>
			<path class="st1" d="M310.5,175.1c0-0.8,0.1-1.5,0.4-2.2s0.7-1.3,1.2-1.8s1.1-0.9,1.8-1.2c1.5-0.6,3.2-0.6,4.6,0
				c0.7,0.3,1.3,0.7,1.8,1.2c1,1.1,1.6,2.5,1.6,4c0,0.8-0.1,1.5-0.4,2.2c-0.6,1.4-1.6,2.4-3,3c-1.5,0.6-3.2,0.6-4.7,0
				c-1.4-0.5-2.5-1.6-3-3C310.6,176.6,310.5,175.9,310.5,175.1z M313.6,175.1c0,0.4,0.1,0.8,0.2,1.1s0.3,0.6,0.6,0.9
				c0.2,0.2,0.5,0.4,0.8,0.6c0.3,0.1,0.7,0.2,1,0.2s0.7-0.1,1-0.2c0.3-0.1,0.6-0.3,0.8-0.6c0.2-0.3,0.4-0.6,0.5-0.9
				c0.1-0.4,0.2-0.8,0.2-1.1c0-0.4-0.1-0.8-0.2-1.2c-0.1-0.3-0.3-0.6-0.5-0.9c-0.2-0.2-0.5-0.4-0.8-0.6c-0.6-0.2-1.4-0.2-2,0
				c-0.3,0.1-0.6,0.3-0.8,0.6c-0.2,0.3-0.4,0.6-0.6,0.9C313.7,174.3,313.6,174.7,313.6,175.1L313.6,175.1z"/>
			<path class="st1" d="M323.1,169.7h5v0.9c0.5-0.4,1-0.7,1.5-0.9c0.6-0.2,1.2-0.3,1.8-0.3c0.7,0,1.5,0.1,2.1,0.4
				c0.6,0.3,1.1,0.7,1.4,1.3c0.2-0.3,0.5-0.5,0.8-0.7s0.6-0.4,0.9-0.6c0.3-0.1,0.7-0.3,1-0.4c0.4-0.1,0.7-0.1,1.1-0.1
				c1.1-0.1,2.2,0.3,3,1.1c0.8,0.9,1.2,2,1.1,3.2v3.9h1.5v2.9h-5v-6.2c0-0.5-0.1-1-0.5-1.4c-0.3-0.4-0.8-0.6-1.3-0.5
				c-0.4,0-0.8,0.1-1.1,0.3c-0.4,0.3-0.7,0.6-1,1v4.1h1.6v2.9h-4.9v-6.2c0-0.3,0-0.5-0.1-0.8c-0.1-0.2-0.2-0.4-0.4-0.6
				c-0.2-0.2-0.4-0.3-0.6-0.4c-0.2-0.1-0.5-0.2-0.7-0.2c-0.4,0-0.7,0.1-1.1,0.2c-0.4,0.2-0.8,0.5-1.1,0.9v4.2h1.8v2.9h-6.7v-2.9h1.6
				v-5.1h-1.6L323.1,169.7z"/>
			<path class="st1" d="M345.4,169.7h5v0.9c0.5-0.4,1-0.7,1.5-0.9c0.6-0.2,1.2-0.3,1.8-0.3c0.7,0,1.5,0.1,2.1,0.4
				c0.6,0.3,1.1,0.8,1.4,1.3c0.2-0.3,0.5-0.5,0.8-0.7s0.6-0.4,0.9-0.6c0.3-0.1,0.7-0.3,1-0.4c0.4-0.1,0.7-0.1,1.1-0.1
				c1.1-0.1,2.2,0.3,3,1.1c0.8,0.9,1.2,2,1.1,3.2v3.9h1.5v2.9h-4.9v-6.2c0-0.5-0.1-1-0.5-1.4c-0.3-0.4-0.8-0.6-1.3-0.5
				c-0.4,0-0.8,0.1-1.1,0.3c-0.4,0.3-0.7,0.6-1,1v4.1h1.6v2.9h-4.9v-6.2c0-0.3,0-0.5-0.1-0.8c-0.1-0.2-0.2-0.4-0.4-0.6
				c-0.2-0.2-0.3-0.3-0.6-0.4c-0.2-0.1-0.5-0.2-0.7-0.2c-0.4,0-0.7,0.1-1.1,0.2c-0.4,0.2-0.8,0.5-1.1,0.9v4.2h1.8v2.9h-6.7v-2.9h1.6
				v-5.1h-1.6L345.4,169.7z"/>
			<path class="st1" d="M367.4,175.1c0-0.8,0.1-1.5,0.4-2.2s0.7-1.3,1.2-1.8s1.1-0.9,1.8-1.2c1.5-0.6,3.2-0.6,4.6,0
				c2.1,0.9,3.5,3,3.4,5.2c0,0.8-0.1,1.5-0.4,2.2c-0.6,1.4-1.6,2.4-3,3c-1.5,0.6-3.2,0.6-4.7,0c-1.4-0.5-2.5-1.6-3-3
				C367.5,176.7,367.3,175.9,367.4,175.1z M370.5,175.1c0,0.4,0.1,0.8,0.2,1.1c0.2,0.7,0.8,1.2,1.4,1.5c0.3,0.1,0.7,0.2,1,0.2
				s0.7-0.1,1-0.2c0.3-0.1,0.6-0.3,0.8-0.6c0.2-0.3,0.4-0.6,0.5-0.9c0.1-0.4,0.2-0.8,0.2-1.1c0-0.4-0.1-0.8-0.2-1.2
				c-0.1-0.3-0.3-0.6-0.5-0.9c-0.2-0.2-0.5-0.4-0.8-0.6c-0.6-0.2-1.4-0.2-2,0c-0.3,0.1-0.6,0.3-0.8,0.6c-0.2,0.3-0.4,0.6-0.6,0.9
				C370.6,174.3,370.5,174.7,370.5,175.1z"/>
			<path class="st1" d="M388.9,174.3c0-0.5-0.1-1-0.5-1.4c-0.3-0.3-0.8-0.5-1.3-0.5c-0.9,0-1.7,0.4-2.2,1.1v4.2h1.8v2.9H380v-2.9
				h1.6v-5.1H380v-2.9h5v0.9c0.5-0.4,1-0.7,1.5-0.9c0.6-0.2,1.2-0.3,1.8-0.3c1.1-0.1,2.2,0.3,3,1.1c0.8,0.9,1.1,2,1,3.2v3.9h1.5v2.9
				h-5L388.9,174.3z"/>
			<path class="st1" d="M401.9,172.6c-0.1-0.2-0.3-0.3-0.5-0.4c-0.2-0.1-0.5-0.2-0.8-0.3s-0.7-0.1-1-0.1c-0.2,0-0.3,0-0.5,0
				s-0.3,0.1-0.5,0.1c-0.1,0.1-0.3,0.1-0.4,0.2c-0.1,0.1-0.1,0.3-0.1,0.4c0,0.1,0,0.2,0,0.2c0,0.1,0.1,0.2,0.1,0.2
				c0.1,0.1,0.2,0.2,0.3,0.2c0.1,0.1,0.3,0.1,0.5,0.1l2,0.4c0.6,0.1,1.2,0.3,1.8,0.5c0.4,0.2,0.8,0.4,1.1,0.7
				c0.3,0.3,0.5,0.6,0.6,0.9c0.1,0.4,0.2,0.7,0.2,1.1c0,0.6-0.1,1.1-0.4,1.6s-0.7,0.9-1.1,1.2c-0.5,0.3-1,0.6-1.6,0.7
				c-0.6,0.2-1.2,0.2-1.8,0.2c-0.4,0-0.7,0-1.1-0.1c-0.3,0-0.6-0.1-0.9-0.2c-0.2-0.1-0.5-0.2-0.7-0.3s-0.4-0.2-0.5-0.4h-1.9v-2.9h3
				v0.1c0,0.2,0.1,0.4,0.2,0.5c0.1,0.2,0.3,0.3,0.5,0.4c0.2,0.1,0.4,0.2,0.6,0.2c0.3,0.1,0.5,0.1,0.8,0.1c0.5,0,0.9,0,1.4-0.2
				c0.2-0.1,0.4-0.4,0.4-0.6c0-0.2-0.1-0.4-0.2-0.5c-0.2-0.2-0.5-0.3-0.8-0.3l-2-0.4c-1-0.1-2-0.6-2.9-1.2c-1-0.9-1.2-2.4-0.6-3.6
				c0.2-0.4,0.6-0.8,1-1.1s0.9-0.6,1.5-0.7c0.6-0.2,1.2-0.3,1.8-0.3c0.4,0,0.8,0,1.2,0.1c0.3,0.1,0.6,0.1,0.9,0.2
				c0.2,0.1,0.5,0.2,0.7,0.3s0.4,0.2,0.5,0.4h1.8v2.9H402C402,172.9,402,172.7,401.9,172.6z"/>
			<path class="st1" d="M304.7,201.2c-0.1-0.2-0.3-0.4-0.5-0.5s-0.5-0.2-0.7-0.3c-0.3-0.1-0.5-0.1-0.8-0.1s-0.5,0-0.8,0.1
				c-0.2,0.1-0.4,0.2-0.6,0.3s-0.3,0.3-0.4,0.4c-0.2,0.5-0.2,1,0.2,1.4c0.3,0.3,0.7,0.5,1.1,0.6l2.1,0.7c0.8,0.2,1.4,0.6,2,1.2
				c0.4,0.5,0.6,1.2,0.6,1.9c0,0.5-0.1,0.9-0.3,1.3c-0.2,0.4-0.5,0.7-0.8,1c-0.4,0.3-0.8,0.5-1.3,0.7s-1.1,0.3-1.6,0.2
				c-0.7,0-1.4-0.1-2.1-0.4c-0.5-0.2-0.9-0.6-1.2-1.1h-1.1V207h2.2c0,0.3,0.1,0.5,0.2,0.8c0.1,0.2,0.3,0.4,0.5,0.5s0.5,0.2,0.7,0.3
				c0.3,0.1,0.5,0.1,0.8,0.1s0.5,0,0.8-0.1c0.2-0.1,0.5-0.2,0.7-0.3s0.3-0.3,0.5-0.5c0.1-0.2,0.2-0.4,0.2-0.6c0-0.3-0.1-0.6-0.3-0.9
				c-0.3-0.3-0.7-0.5-1.2-0.7l-2.1-0.8c-0.7-0.2-1.4-0.6-1.9-1.1c-0.4-0.5-0.6-1.1-0.6-1.8c0-0.4,0.1-0.9,0.3-1.3
				c0.2-0.4,0.4-0.7,0.7-1c0.4-0.3,0.8-0.5,1.2-0.7c0.5-0.2,1.1-0.2,1.6-0.2c0.7,0,1.3,0.1,1.9,0.3s1,0.6,1.4,1.1h1v1.8H305
				C304.9,201.7,304.9,201.4,304.7,201.2z"/>
			<path class="st1" d="M308.4,199h3.5v9h1.6v1.8h-5.1V208h1.6v-7.2h-1.6V199z M309.6,195.2c0-0.5,0.3-1,0.8-1.2
				c0.2-0.1,0.3-0.1,0.5-0.1s0.4,0,0.5,0.1c0.5,0.2,0.8,0.7,0.8,1.2c0,0.2,0,0.4-0.1,0.5c-0.1,0.2-0.2,0.3-0.3,0.4
				c-0.1,0.1-0.3,0.2-0.4,0.3c-0.2,0.1-0.3,0.1-0.5,0.1c-0.4,0-0.7-0.1-1-0.4c-0.1-0.1-0.2-0.3-0.3-0.4
				C309.6,195.5,309.6,195.4,309.6,195.2L309.6,195.2z"/>
			<path class="st1" d="M322,208.1h1.5v-4.9c0-0.7-0.2-1.4-0.6-1.9c-0.5-0.5-1.1-0.7-1.8-0.6c-0.5,0-0.9,0.1-1.4,0.3
				s-0.9,0.5-1.3,0.8v6.3h1.5v1.8h-5.1v-1.8h1.5v-7.2h-1.5v-1.8h3.5v1.3l0,0c0.2-0.2,0.5-0.4,0.7-0.6c0.3-0.2,0.5-0.3,0.8-0.5
				c0.3-0.1,0.6-0.2,0.9-0.3s0.7-0.1,1-0.1c0.5,0,1.1,0.1,1.6,0.2c0.4,0.1,0.9,0.4,1.2,0.7c0.3,0.4,0.6,0.8,0.8,1.3
				c0.2,0.6,0.3,1.2,0.3,1.8v5.2h1.4v1.8h-5V208.1z"/>
			<path class="st1" d="M335.9,201.9c-0.3-0.5-0.6-0.9-1.1-1.1c-0.5-0.3-1-0.4-1.6-0.4c-0.4,0-0.9,0.1-1.3,0.3s-0.7,0.5-1,0.8
				c-0.3,0.4-0.5,0.8-0.7,1.3s-0.3,1.1-0.3,1.7c0,0.6,0.1,1.1,0.3,1.6c0.2,0.5,0.4,0.9,0.7,1.2c0.6,0.7,1.4,1.1,2.3,1.1
				c0.6,0,1.2-0.2,1.8-0.5c0.5-0.4,0.9-0.8,1.2-1.4l1.6,0.8c-0.2,0.4-0.5,0.8-0.8,1.2c-0.6,0.7-1.4,1.2-2.3,1.5
				c-1.9,0.6-3.9,0-5.2-1.4c-0.5-0.5-0.8-1.2-1.1-1.8c-0.3-0.7-0.4-1.5-0.4-2.3s0.1-1.6,0.4-2.3c0.2-0.7,0.6-1.3,1.1-1.8
				s1-0.9,1.7-1.2c0.6-0.3,1.3-0.4,2-0.4s1.4,0.1,2,0.4c0.6,0.2,1.2,0.6,1.6,1.1h1.1v1.8L335.9,201.9z"/>
			<path class="st1" d="M341,204.7c0,0.3,0,0.6,0.1,0.9c0,0.2,0.1,0.5,0.2,0.7c0.2,0.7,0.7,1.2,1.2,1.6c0.6,0.4,1.3,0.5,1.9,0.5
				s1.1-0.1,1.6-0.2c0.6-0.2,1.1-0.4,1.7-0.7l0.8,1.3c-0.7,0.5-1.4,0.8-2.1,1.1c-0.7,0.2-1.5,0.4-2.2,0.4s-1.4-0.1-2-0.4
				c-0.6-0.2-1.2-0.6-1.6-1.1c-0.5-0.5-0.8-1.1-1.1-1.8c-0.3-0.8-0.4-1.7-0.4-2.5c0-0.7,0.1-1.5,0.3-2.2c0.2-0.6,0.6-1.2,1-1.8
				c0.4-0.5,1-0.9,1.6-1.2c0.7-0.3,1.4-0.5,2.2-0.5c0.7,0,1.4,0.1,2,0.4c0.5,0.2,1,0.6,1.3,1s0.6,0.9,0.8,1.4
				c0.2,0.5,0.3,1.1,0.4,1.6c0,0.3,0,0.5,0.1,0.8s0,0.5,0,0.8L341,204.7z M344,200.4c-0.4,0-0.8,0.1-1.2,0.2
				c-0.3,0.1-0.6,0.3-0.9,0.6c-0.2,0.3-0.4,0.6-0.6,0.9c-0.2,0.4-0.3,0.8-0.3,1.2h5.6c0-0.4-0.1-0.8-0.2-1.1s-0.3-0.6-0.5-0.9
				c-0.2-0.3-0.5-0.5-0.8-0.6C344.8,200.5,344.4,200.4,344,200.4z"/>
			<path class="st1" d="M355.6,206.7h1.8v-9.1l-2.7,1.6v-4l4.8-2.8h1.7v14.4h1.9v3.2h-7.5L355.6,206.7z"/>
			<path class="st1" d="M366.5,209.9l3.5-6.2c-0.2,0-0.4,0-0.6,0s-0.4,0-0.5-0.1c-0.6-0.1-1.3-0.3-1.8-0.7c-0.6-0.3-1.1-0.7-1.5-1.2
				s-0.8-1-1-1.6s-0.4-1.3-0.4-1.9c0-0.8,0.2-1.6,0.5-2.3s0.8-1.3,1.3-1.9c0.6-0.5,1.2-0.9,1.9-1.2c0.8-0.3,1.6-0.5,2.4-0.4
				c0.8,0,1.6,0.2,2.3,0.4c0.7,0.3,1.4,0.7,1.9,1.2c0.6,0.5,1,1.1,1.3,1.8s0.5,1.5,0.5,2.3c0,0.4,0,0.7-0.1,1.1
				c-0.1,0.3-0.2,0.7-0.3,1c-0.1,0.3-0.3,0.7-0.5,1s-0.3,0.6-0.5,1l-4.3,7.8L366.5,209.9z M370.4,200.4c0.4,0,0.8-0.1,1.2-0.2
				c0.4-0.2,0.7-0.4,0.9-0.7c0.1-0.2,0.2-0.4,0.3-0.7c0.1-0.2,0.1-0.5,0.1-0.8c0-0.6-0.2-1.2-0.6-1.6c-0.2-0.2-0.5-0.5-0.8-0.6
				c-0.4-0.2-0.8-0.2-1.2-0.2c-0.3,0-0.7,0.1-1,0.2c-0.3,0.1-0.6,0.3-0.9,0.5s-0.5,0.5-0.6,0.8c-0.2,0.3-0.2,0.7-0.2,1
				c0,0.7,0.3,1.3,0.8,1.8c0.3,0.2,0.6,0.4,0.9,0.5C369.6,200.4,370,200.4,370.4,200.4L370.4,200.4z"/>
			<path class="st1" d="M385.3,197.4c0-0.2-0.1-0.5-0.2-0.7s-0.3-0.4-0.5-0.6c-0.2-0.2-0.4-0.3-0.7-0.4c-0.3-0.1-0.6-0.2-0.9-0.2
				s-0.6,0-0.8,0.1c-0.2,0.1-0.5,0.2-0.7,0.4s-0.4,0.3-0.5,0.6s-0.2,0.7-0.2,1.1h-3.6c0-2.2,1.3-4.2,3.4-5.2
				c0.7-0.3,1.5-0.5,2.4-0.4c1.5,0,3,0.5,4.1,1.6c0.5,0.5,0.9,1,1.2,1.7c0.6,1.3,0.6,2.7,0,4c-0.3,0.6-0.7,1.1-1.3,1.5
				c0.3,0.2,0.6,0.4,0.8,0.6c0.2,0.3,0.5,0.6,0.6,0.9c0.4,0.7,0.6,1.5,0.6,2.3c0,0.7-0.1,1.5-0.5,2.1c-0.3,0.7-0.7,1.3-1.3,1.8
				c-1.2,1.1-2.7,1.7-4.3,1.7c-0.8,0-1.5-0.1-2.3-0.4c-0.7-0.2-1.3-0.6-1.8-1.1c-0.5-0.4-1-1-1.3-1.6c-0.3-0.5-0.5-1-0.6-1.5
				c-0.1-0.4-0.1-0.8-0.1-1.3h3.6c0.1,1.4,1.2,2.4,2.5,2.4c0.3,0,0.6-0.1,0.8-0.2c0.3-0.1,0.5-0.3,0.8-0.4c0.2-0.2,0.4-0.4,0.5-0.7
				s0.2-0.5,0.2-0.8s0-0.6-0.2-0.9c-0.1-0.3-0.3-0.5-0.5-0.7s-0.5-0.3-0.8-0.4c-0.3-0.1-0.7-0.2-1-0.2h-1.6v-3.1h1.6
				c0.3,0,0.6-0.1,0.8-0.2c0.2-0.1,0.5-0.2,0.7-0.4s0.3-0.4,0.4-0.6C385.2,197.8,385.3,197.6,385.3,197.4z"/>
			<path class="st1" d="M390.2,202.1l6.2-9.8h3.9l-6.2,9.8h3.7v-3.4h3.6v3.4h2.4v2.9h-2.4v1.6h2.2v3.2h-7.5v-3.2h1.7V205h-7.7
				L390.2,202.1z"/>
			<g class="st2">
				<polyline class="st3" points="162.5,142.4 61.9,19.4 -133.1,222.3 -319.3,12.3 				"/>
				<polyline class="st3" points="-118.6,19.4 42.6,106.5 132.8,287.5 234.9,201.1 298.8,266.8 403.6,266.8 471.4,212.2 
					471.4,147.9 546.2,81 				"/>
				<polyline class="st3" points="197.5,65.2 42.6,106.5 61.9,19.4 				"/>
				<line class="st3" x1="187.2" y1="195.6" x2="-48.1" y2="266.8"/>
				<polyline class="st3" points="298.8,44.9 206.9,108.8 197.5,65.2 179,-0.9 				"/>
				<path class="st3" d="M179-0.9"/>
				<polyline class="st3" points="616.6,123.3 471.4,147.9 635.1,249.2 				"/>
				<polygon class="st3" points="471.4,212.2 531.2,249.2 509.7,287.5 				"/>
				<polygon class="st3" points="-48.1,266.8 42.6,106.5 -133.5,221.9 -178.9,287.5 -335.6,233.8 -133.5,221.9 				"/>
				<circle class="st1" cx="545.8" cy="82.3" r="3.5"/>
				<circle class="st1" cx="617.1" cy="123.7" r="3.5"/>
				<circle class="st1" cx="634.7" cy="249.6" r="3.5"/>
				<circle class="st1" cx="299.2" cy="44.5" r="3.5"/>
				<circle class="st1" cx="42.1" cy="106.1" r="3.5"/>
			</g>
		</g>
	</g>
</g>
<g>
	<polygon class="st4" points="247.9,205.3 206.9,92.7 104.1,185.1 	"/>
	<g>
		<rect x="198.2" y="149" class="st1" width="8.2" height="28.2"/>
		<path class="st1" d="M179.9,166l2.4-8.9l2.5,8.9H179.9z M177.9,149l-10.1,28.2h9.1l1.5-4.6h7.9l1.5,4.6h9.1L186.8,149H177.9z"/>
		<polygon class="st1" points="134.5,177.2 142.5,177.2 142.5,161.3 147.9,172.9 153.1,172.9 158.5,161.3 158.5,177.2 166.5,177.2 
			166.5,149 157,149 150.6,162.7 144.3,149 134.5,149 		"/>
		<polygon class="st1" points="209.5,149 209.5,177.2 217.7,177.2 217.7,166.4 228,166.4 229.1,159.7 217.7,159.7 217.7,155.7 
			229.8,155.7 230.9,149 		"/>
	</g>
</g>
</svg>
